<svg width="570" height="512" viewBox="0 0 570 512" fill="none" xmlns="http://www.w3.org/2000/svg">
<g clip-path="url(#clip0)">
<rect y="194" width="570" height="318" rx="7" fill="white"/>
<path d="M6.792 195.5L285.5 1.21897L564.208 195.5H6.792Z" fill="white" stroke="#C850C0" stroke-width="2"/>
<path d="M174.256 456.541H44.8152C44.0204 456.542 43.2332 456.386 42.4986 456.083C41.764 455.78 41.0964 455.334 40.5341 454.773C39.9717 454.211 39.5256 453.544 39.2212 452.81C38.9168 452.076 38.7601 451.289 38.7601 450.494C38.7601 449.699 38.9168 448.912 39.2212 448.178C39.5256 447.443 39.9717 446.777 40.5341 446.215C41.0964 445.653 41.764 445.208 42.4986 444.904C43.2332 444.601 44.0204 444.445 44.8152 444.446H174.256C175.05 444.445 175.838 444.601 176.572 444.904C177.307 445.208 177.974 445.653 178.537 446.215C179.099 446.777 179.545 447.443 179.85 448.178C180.154 448.912 180.311 449.699 180.311 450.494C180.311 451.289 180.154 452.076 179.85 452.81C179.545 453.544 179.099 454.211 178.537 454.773C177.974 455.334 177.307 455.78 176.572 456.083C175.838 456.386 175.05 456.542 174.256 456.541V456.541Z" fill="#C850C0"/>
<path d="M91.2555 430.541H44.8152C44.0204 430.542 43.2332 430.386 42.4986 430.083C41.764 429.78 41.0964 429.334 40.5341 428.773C39.9717 428.211 39.5256 427.544 39.2212 426.81C38.9168 426.076 38.7601 425.289 38.7601 424.494C38.7601 423.699 38.9168 422.912 39.2212 422.178C39.5256 421.443 39.9717 420.777 40.5341 420.215C41.0964 419.653 41.764 419.208 42.4986 418.904C43.2332 418.601 44.0204 418.445 44.8152 418.446H91.2555C92.0503 418.445 92.8375 418.601 93.5721 418.904C94.3067 419.208 94.9743 419.653 95.5367 420.215C96.0991 420.777 96.5452 421.443 96.8496 422.178C97.154 422.912 97.3107 423.699 97.3107 424.494C97.3107 425.289 97.154 426.076 96.8496 426.81C96.5452 427.544 96.0991 428.211 95.5367 428.773C94.9743 429.334 94.3067 429.78 93.5721 430.083C92.8375 430.386 92.0503 430.542 91.2555 430.541Z" fill="#C850C0"/>
<path d="M288.96 310.66C287.976 310.661 287.002 310.47 286.091 310.098L124.5 243.049V33.1747C124.502 31.3188 125.241 29.5396 126.553 28.2273C127.865 26.915 129.644 26.1768 131.5 26.1747H441.5C443.356 26.1768 445.135 26.915 446.448 28.2273C447.76 29.5396 448.498 31.3188 448.5 33.1747V243.195L448.196 243.325L291.916 310.065C290.98 310.458 289.975 310.66 288.96 310.66Z" fill="white"/>
<path d="M288.96 311.159C287.911 311.16 286.872 310.957 285.901 310.56L124 243.383V33.1746C124.002 31.1862 124.793 29.2798 126.199 27.8738C127.605 26.4678 129.512 25.6769 131.5 25.6746H441.5C443.489 25.6769 445.395 26.4678 446.801 27.8738C448.207 29.2798 448.998 31.1862 449 33.1746V243.525L292.112 310.524C291.115 310.944 290.043 311.16 288.96 311.159V311.159ZM126 242.047L286.663 308.711C288.162 309.319 289.84 309.309 291.331 308.683L447 242.205V33.1746C446.999 31.7165 446.419 30.3185 445.387 29.2874C444.356 28.2564 442.958 27.6763 441.5 27.6746H131.5C130.042 27.6763 128.644 28.2564 127.613 29.2874C126.582 30.3185 126.002 31.7165 126 33.1746L126 242.047Z" fill="#C850C0"/>
<path d="M563 193.675H562.8L448 242.695L290.93 309.765C290.316 310.023 289.658 310.158 288.992 310.161C288.326 310.165 287.666 310.037 287.05 309.785L125 242.555L7.37988 193.755L7.2002 193.675H7C5.14412 193.677 3.36483 194.415 2.05252 195.727C0.740212 197.04 0.00205925 198.819 0 200.675V504.675C0.00206189 506.531 0.740213 508.31 2.05252 509.622C3.36483 510.935 5.14412 511.673 7 511.675H563C564.856 511.673 566.635 510.935 567.947 509.622C569.26 508.31 569.998 506.531 570 504.675V200.675C569.998 198.819 569.26 197.04 567.947 195.727C566.635 194.415 564.856 193.677 563 193.675V193.675ZM568 504.675C567.999 506.001 567.473 507.272 566.535 508.21C565.597 509.147 564.326 509.674 563 509.675H7C5.67408 509.674 4.40262 509.147 3.46506 508.21C2.52749 507.272 2.00053 506.001 2 504.675V200.675C2.00181 199.382 2.50336 198.14 3.39978 197.208C4.2962 196.276 5.5181 195.727 6.81006 195.675L125 244.715L286.28 311.635C288.026 312.345 289.982 312.334 291.72 311.605L448 244.865L563.2 195.675C564.49 195.731 565.708 196.281 566.602 197.213C567.496 198.144 567.997 199.384 568 200.675V504.675Z" fill="#C850C0"/>
<path d="M287.345 251.147C281.38 251.158 275.572 249.229 270.799 245.651L270.503 245.429L208.192 197.721C205.306 195.51 202.884 192.752 201.065 189.605C199.245 186.458 198.062 182.983 197.585 179.379C197.108 175.775 197.346 172.113 198.284 168.601C199.223 165.088 200.844 161.795 203.055 158.91C205.266 156.024 208.024 153.602 211.171 151.782C214.318 149.962 217.792 148.78 221.396 148.303C225 147.826 228.663 148.063 232.175 149.001C235.688 149.94 238.981 151.561 241.866 153.772L282.227 184.72L377.605 60.333C379.817 57.448 382.575 55.027 385.723 53.2081C388.871 51.3892 392.346 50.2082 395.95 49.7324C399.554 49.2567 403.217 49.4955 406.729 50.4352C410.241 51.375 413.533 52.9973 416.418 55.2095L415.825 56.0147L416.433 55.2212C422.253 59.6938 426.06 66.2921 427.021 73.5685C427.981 80.845 426.016 88.2053 421.557 94.0347L309.369 240.343C306.775 243.715 303.438 246.443 299.619 248.317C295.799 250.19 291.599 251.159 287.345 251.147V251.147Z" fill="#C850C0"/>
<path d="M427.977 442.328H422.82L420.277 457H417.395L419.949 442.328H414.828L415.25 439.938H428.398L427.977 442.328ZM425.668 450.613C425.801 449.371 426.164 448.242 426.758 447.227C427.359 446.211 428.129 445.426 429.066 444.871C430.004 444.316 431.043 444.055 432.184 444.086C433.27 444.102 434.207 444.391 434.996 444.953C435.785 445.516 436.359 446.285 436.719 447.262C437.086 448.238 437.215 449.324 437.105 450.52C436.98 451.863 436.613 453.051 436.004 454.082C435.402 455.113 434.629 455.906 433.684 456.461C432.746 457.008 431.703 457.266 430.555 457.234C429.477 457.219 428.543 456.934 427.754 456.379C426.973 455.816 426.398 455.051 426.031 454.082C425.664 453.105 425.531 452.031 425.633 450.859L425.668 450.613ZM428.398 452.219C428.438 453.039 428.652 453.699 429.043 454.199C429.441 454.691 429.992 454.949 430.695 454.973C431.648 454.996 432.445 454.629 433.086 453.871C433.734 453.113 434.141 452.078 434.305 450.766L434.375 449.617C434.375 448.617 434.176 447.832 433.777 447.262C433.379 446.691 432.801 446.391 432.043 446.359C430.855 446.328 429.918 446.91 429.23 448.105C428.816 448.832 428.555 449.668 428.445 450.613C428.383 451.27 428.367 451.805 428.398 452.219ZM438.699 455.629C438.699 455.152 438.848 454.766 439.145 454.469C439.449 454.164 439.836 454.004 440.305 453.988C440.766 453.973 441.148 454.113 441.453 454.41C441.766 454.699 441.922 455.074 441.922 455.535C441.922 455.988 441.773 456.367 441.477 456.672C441.18 456.969 440.793 457.125 440.316 457.141C439.855 457.156 439.469 457.02 439.156 456.73C438.852 456.441 438.699 456.074 438.699 455.629ZM440.41 445.68C440.41 445.203 440.559 444.816 440.855 444.52C441.16 444.215 441.547 444.055 442.016 444.039C442.477 444.023 442.859 444.164 443.164 444.461C443.477 444.75 443.633 445.125 443.633 445.586C443.633 446.039 443.484 446.418 443.188 446.723C442.891 447.02 442.504 447.176 442.027 447.191C441.566 447.207 441.18 447.07 440.867 446.781C440.562 446.492 440.41 446.125 440.41 445.68ZM454.191 454.633H461.715L461.293 457H450.887L453.852 439.938H456.746L454.191 454.633ZM466.297 457H463.52L465.723 444.32H468.5L466.297 457ZM466.121 441.074C466.121 440.645 466.262 440.277 466.543 439.973C466.824 439.668 467.203 439.508 467.68 439.492C468.133 439.477 468.508 439.617 468.805 439.914C469.109 440.203 469.262 440.559 469.262 440.98C469.262 441.426 469.113 441.793 468.816 442.082C468.527 442.371 468.156 442.523 467.703 442.539C467.258 442.555 466.883 442.422 466.578 442.141C466.273 441.852 466.121 441.496 466.121 441.074ZM474.184 444.309L473.902 445.797C474.988 444.625 476.242 444.055 477.664 444.086C478.852 444.109 479.73 444.535 480.301 445.363C480.871 446.184 481.082 447.332 480.934 448.809L479.562 457H476.785L478.168 448.773C478.207 448.438 478.211 448.125 478.18 447.836C478.078 446.906 477.523 446.43 476.516 446.406C475.461 446.391 474.535 446.91 473.738 447.965L472.156 457H469.379L471.57 444.32L474.184 444.309ZM483.102 450.648C483.258 449.344 483.609 448.172 484.156 447.133C484.703 446.094 485.379 445.32 486.184 444.812C486.988 444.297 487.883 444.051 488.867 444.074C490.156 444.105 491.164 444.586 491.891 445.516L493.109 439H495.898L492.77 457H490.285L490.473 455.688C489.488 456.758 488.332 457.277 487.004 457.246C485.824 457.23 484.879 456.777 484.168 455.887C483.465 454.988 483.086 453.797 483.031 452.312C483.008 451.828 483.02 451.355 483.066 450.895L483.102 450.648ZM485.797 451.738C485.742 452.707 485.891 453.477 486.242 454.047C486.602 454.617 487.133 454.91 487.836 454.926C488.906 454.957 489.832 454.438 490.613 453.367L491.562 447.918C491.195 446.941 490.484 446.438 489.43 446.406C488.367 446.375 487.512 446.844 486.863 447.812C486.215 448.781 485.859 450.09 485.797 451.738ZM503.293 457C503.199 456.688 503.16 456.293 503.176 455.816C502.129 456.793 501 457.266 499.789 457.234C498.688 457.219 497.773 456.867 497.047 456.18C496.328 455.484 495.992 454.605 496.039 453.543C496.102 452.207 496.68 451.156 497.773 450.391C498.867 449.625 500.336 449.242 502.18 449.242L503.984 449.266L504.148 448.398C504.195 448.094 504.195 447.809 504.148 447.543C503.992 446.699 503.434 446.266 502.473 446.242C501.879 446.227 501.355 446.379 500.902 446.699C500.457 447.012 500.184 447.434 500.082 447.965L497.305 447.988C497.359 447.207 497.637 446.523 498.137 445.938C498.637 445.344 499.301 444.883 500.129 444.555C500.957 444.227 501.832 444.07 502.754 444.086C504.137 444.117 505.215 444.535 505.988 445.34C506.762 446.137 507.082 447.172 506.949 448.445L505.977 454.387L505.883 455.441C505.859 455.902 505.918 456.352 506.059 456.789L506.047 457H503.293ZM500.434 454.961C501.02 454.977 501.562 454.844 502.062 454.562C502.562 454.273 502.988 453.902 503.34 453.449L503.773 451.047L502.449 451.035C501.402 451.035 500.566 451.234 499.941 451.633C499.316 452.023 498.961 452.562 498.875 453.25C498.812 453.773 498.926 454.188 499.215 454.492C499.512 454.789 499.918 454.945 500.434 454.961ZM521.246 457.234C520.137 457.211 519.16 456.945 518.316 456.438C517.48 455.93 516.828 455.195 516.359 454.234C515.891 453.266 515.625 452.168 515.562 450.941C515.508 449.965 515.594 448.824 515.82 447.52C516.055 446.215 516.465 445.027 517.051 443.957C517.645 442.879 518.352 442 519.172 441.32C520.523 440.211 522.086 439.672 523.859 439.703C525.547 439.734 526.891 440.316 527.891 441.449C528.898 442.582 529.449 444.113 529.543 446.043C529.59 447.012 529.5 448.125 529.273 449.383C529.055 450.633 528.672 451.785 528.125 452.84C527.586 453.887 526.914 454.762 526.109 455.465C524.719 456.684 523.098 457.273 521.246 457.234ZM526.578 448.012L526.684 446.77C526.73 445.918 526.656 445.133 526.461 444.414C526.266 443.688 525.934 443.137 525.465 442.762C525.004 442.379 524.418 442.176 523.707 442.152C522.723 442.121 521.848 442.398 521.082 442.984C520.324 443.57 519.707 444.461 519.23 445.656C518.762 446.852 518.488 448.352 518.41 450.156C518.332 451.586 518.551 452.711 519.066 453.531C519.582 454.352 520.355 454.777 521.387 454.809C522.738 454.848 523.852 454.34 524.727 453.285C525.609 452.23 526.188 450.746 526.461 448.832L526.578 448.012ZM535.707 444.32L533.375 458.113C533.203 459.426 532.75 460.43 532.016 461.125C531.281 461.828 530.324 462.172 529.145 462.156C528.645 462.141 528.117 462.066 527.562 461.934L527.797 459.684C528.156 459.77 528.484 459.812 528.781 459.812C529.773 459.812 530.371 459.23 530.574 458.066L532.93 444.32H535.707ZM533.27 441.074C533.27 440.621 533.41 440.25 533.691 439.961C533.973 439.664 534.348 439.508 534.816 439.492C535.27 439.477 535.645 439.613 535.941 439.902C536.246 440.184 536.398 440.543 536.398 440.98C536.398 441.426 536.25 441.793 535.953 442.082C535.664 442.371 535.293 442.523 534.84 442.539C534.371 442.539 533.992 442.402 533.703 442.129C533.414 441.848 533.27 441.496 533.27 441.074ZM537.23 450.613C537.363 449.371 537.727 448.242 538.32 447.227C538.922 446.211 539.691 445.426 540.629 444.871C541.566 444.316 542.605 444.055 543.746 444.086C544.832 444.102 545.77 444.391 546.559 444.953C547.348 445.516 547.922 446.285 548.281 447.262C548.648 448.238 548.777 449.324 548.668 450.52C548.543 451.863 548.176 453.051 547.566 454.082C546.965 455.113 546.191 455.906 545.246 456.461C544.309 457.008 543.266 457.266 542.117 457.234C541.039 457.219 540.105 456.934 539.316 456.379C538.535 455.816 537.961 455.051 537.594 454.082C537.227 453.105 537.094 452.031 537.195 450.859L537.23 450.613ZM539.961 452.219C540 453.039 540.215 453.699 540.605 454.199C541.004 454.691 541.555 454.949 542.258 454.973C543.211 454.996 544.008 454.629 544.648 453.871C545.297 453.113 545.703 452.078 545.867 450.766L545.938 449.617C545.938 448.617 545.738 447.832 545.34 447.262C544.941 446.691 544.363 446.391 543.605 446.359C542.418 446.328 541.48 446.91 540.793 448.105C540.379 448.832 540.117 449.668 540.008 450.613C539.945 451.27 539.93 451.805 539.961 452.219Z" fill="#C850C0"/>
</g>
<defs>
<clipPath id="clip0">
<rect width="570" height="511.675" fill="white"/>
</clipPath>
</defs>
</svg>
