<svg width="448" height="208" viewBox="0 0 448 208" fill="none" xmlns="http://www.w3.org/2000/svg">
<path d="M431.83 208H86.1698C84.0473 208.001 81.9451 207.847 79.9834 207.546C78.0218 207.244 76.2391 206.803 74.7373 206.245C73.2355 205.688 72.0442 205.026 71.2313 204.298C70.4184 203.569 70 202.789 70 202C70 201.211 70.4184 200.431 71.2313 199.702C72.0442 198.974 73.2355 198.312 74.7373 197.755C76.2391 197.197 78.0218 196.756 79.9834 196.454C81.9451 196.153 84.0473 195.999 86.1698 196H431.83C433.953 195.999 436.055 196.153 438.017 196.454C439.978 196.756 441.761 197.197 443.263 197.755C444.764 198.312 445.956 198.974 446.769 199.702C447.582 200.431 448 201.211 448 202C448 202.789 447.582 203.569 446.769 204.298C445.956 205.026 444.764 205.688 443.263 206.245C441.761 206.803 439.978 207.244 438.017 207.546C436.055 207.847 433.953 208.001 431.83 208V208Z" fill="#C850C0"/>
<path d="M372.36 117H16.6403C14.4561 117.001 12.2927 116.847 10.274 116.546C8.25519 116.244 6.42063 115.803 4.87515 115.245C3.32967 114.688 2.10366 114.026 1.26714 113.298C0.430618 112.569 0 111.789 0 111C0 110.211 0.430618 109.431 1.26714 108.702C2.10366 107.974 3.32967 107.312 4.87515 106.755C6.42063 106.197 8.25519 105.756 10.274 105.454C12.2927 105.153 14.4561 104.999 16.6403 105H372.36C374.544 104.999 376.707 105.153 378.726 105.454C380.745 105.756 382.579 106.197 384.125 106.755C385.67 107.312 386.896 107.974 387.733 108.702C388.569 109.431 389 110.211 389 111C389 111.789 388.569 112.569 387.733 113.298C386.896 114.026 385.67 114.688 384.125 115.245C382.579 115.803 380.745 116.244 378.726 116.546C376.707 116.847 374.544 117.001 372.36 117V117Z" fill="#C850C0"/>
<path d="M434.825 12H153.175C151.446 12.001 149.733 11.8466 148.135 11.5455C146.536 11.2444 145.084 10.8026 143.86 10.2454C142.636 9.6881 141.666 9.02636 141.003 8.2979C140.341 7.56944 140 6.78858 140 6C140 5.21142 140.341 4.43056 141.003 3.7021C141.666 2.97364 142.636 2.3119 143.86 1.75465C145.084 1.19739 146.536 0.75556 148.135 0.454486C149.733 0.153412 151.446 -0.0010091 153.175 4.96209e-06H434.825C436.554 -0.0010091 438.267 0.153412 439.865 0.454486C441.464 0.75556 442.916 1.19739 444.14 1.75465C445.364 2.3119 446.334 2.97364 446.997 3.7021C447.659 4.43056 448 5.21142 448 6C448 6.78858 447.659 7.56944 446.997 8.2979C446.334 9.02636 445.364 9.6881 444.14 10.2454C442.916 10.8026 441.464 11.2444 439.865 11.5455C438.267 11.8466 436.554 12.001 434.825 12V12Z" fill="#C850C0"/>
</svg>
